<?xml version="1.0" ?><!DOCTYPE svg  PUBLIC '-//W3C//DTD SVG 1.1//EN'  'http://www.w3.org/Graphics/SVG/1.1/DTD/svg11.dtd'><svg enable-background="new 0 0 550 550" id="Layer_1" version="1.1" viewBox="0 0 550 550" xml:space="preserve" xmlns="http://www.w3.org/2000/svg" xmlns:xlink="http://www.w3.org/1999/xlink"><g><g><circle cx="275" cy="275" fill="#6CB4E3" r="256"/><g><path d="M330.7,156c-22.5,1.9-43.3,9.5-63.2,19.9c-5.3,2.8-10.5,5.9-16.2,9c-9.1-12.4-18.3-24.5-27-36.8      c-4.7-6.7-11-10-18.9-9.7c-26.4,1-46,13.5-59.1,36.2c-7,12.1-6.4,23.8,2.8,34.9c7.3,8.7,14,17.9,20.9,27c2.8,3.6,7.5,7.3,7.5,11      c0,3.9-4.5,7.8-7.2,11.6c-15.2,21.7-28.2,44.5-34.2,70.6c-0.3,1.2,0.3,2.6,0.4,3.9c0.9-1.1,2.2-2.2,2.6-3.4      c7.1-25.9,19.2-49.3,35.4-70.6c2.1-2.7,4.4-5.1,6.9-8c4.9,6.6,9.3,12.6,13.8,18.6c-2.1,2.8-4.2,5.5-6.1,8.2      c-21.8,30.1-32.9,63.3-28.1,100.6c3.2,25.1,16.1,43.9,40.4,53.3c22.3,8.6,45.2,7.3,67.7,1c23.5-6.5,43.7-19.5,62.3-34.8      c48.3-39.9,83.5-88,91.7-152.1c2.5-19.8-0.4-39.2-11.9-56.1C391.9,161.6,363.5,153.2,330.7,156z M153.3,205.3      c-6.9-9-7.6-17.8-2.2-27.3c11.7-20.6,29.4-32.1,53.2-33.7c6.4-0.5,11.3,2.2,15.4,7.7c27.5,37,55.3,73.7,83.2,110.4      c2.7,3.6,3.2,7.4,3.7,11.4c3.1,24.5,6.1,49,9.1,73.5c0.1,1.2,0,2.4,0,4c-10-4.3-19.8-8.5-29.5-12.7c-15-6.5-30-13-44.9-19.6      c-2-0.9-3.9-2.3-5.2-4C208.5,278.4,181.1,241.7,153.3,205.3z M272.1,212c11.9-6.5,24.2-10.8,37.3-12.9      c17.7-2.8,34.6,0.2,50.6,8.3c13.8,7,20.4,18.8,22.2,33.7c3.4,28.9-7.6,53.2-25.4,74.7c-10,12.1-21.7,22.8-32.7,34      c-0.4,0.4-1,0.6-2.1,1.3c-2.6-21.5-5.1-42.3-7.6-63.1c-0.9-7.3-1.6-14.7-2.9-22c-0.4-2.5-2.3-4.9-3.9-7      c-11-14.5-22-28.9-33.1-43.4C273.8,214.5,273.1,213.4,272.1,212z M395,309.5c-22,44.4-55,78.8-98.3,103.1      c-15.2,8.6-31.8,13.9-49.3,14.1c-24.9,0.2-47.7-6.3-65.1-25.6c-9.1-10.1-12.9-22.6-13.5-35.9c-1.5-32.9,10.4-61.6,28.6-88.2      c0.3-0.5,0.6-1.1,1.2-2c1.5,1.9,2.5,3.2,3.5,4.5c10,13.4,19.9,26.8,29.9,40.1c1.1,1.5,2.7,3.1,4.3,3.8      c27.9,12.2,55.8,24.2,83.7,36.3c0.5,0.2,1.1,0.3,1,0.3c2-2.3,3.5-4.6,5.5-6.3c20.6-16.8,38.8-35.7,52-59.1      c9.8-17.3,14.6-35.9,13-55.8c-2-24.6-14.8-42.4-44.6-48.6c-21.6-4.5-41.7,1.1-61.5,8.8c-4.8,1.9-9.4,4.2-14,6.5      c-2.2,1.1-3.8,1.3-5.4-1c-3.2-4.6-6.7-9-10.5-14c13.7-7.9,27.6-13.8,42.3-17.6c24.1-6.3,48-7.3,71.5,3.1      c23.6,10.4,36.6,28.6,40,53.8C413.3,257.9,407.4,284.5,395,309.5z" fill="#16539A"/><path d="M241.3,318.9c14.9,6.6,29.9,13.1,44.9,19.6c9.7,4.2,19.4,8.4,29.5,12.7c0-1.7,0.1-2.9,0-4      c-3-24.5-6-49-9.1-73.5c-0.5-4-1-7.8-3.7-11.4c-27.9-36.7-55.7-73.5-83.2-110.4c-4.1-5.5-9-8.2-15.4-7.7      c-23.7,1.7-41.4,13.1-53.2,33.7c-5.4,9.6-4.7,18.3,2.2,27.3c27.8,36.4,55.2,73.1,82.8,109.6      C237.4,316.6,239.4,318.1,241.3,318.9z M301.4,308.6c0.1,0.6,0.1,1.2,0.2,1.8c1.9,12.5,1.6,13.2-8.7,19.7      c-0.7,0.4-1.8,0.6-2.5,0.3c-14.1-6.2-28.1-12.5-42.6-18.9c6.5-11.7,11-23.1,9.9-36.4c13.6,4.4,25.8,1.2,37.9-5.5      C297.6,283,299.5,295.8,301.4,308.6z M234.9,188.5c18.9,25.2,37.7,50.5,56.5,75.8c0.2,0.2,0.1,0.6,0.3,1.2      c-4.5,4.5-10.7,5-16.6,5.7c-11,1.3-20.1-0.9-27.2-11.1c-13.1-18.7-27.3-36.7-41.1-54.9c-1-1.3-1.9-2.7-3.2-4.4      c8.5-7.3,18.2-11,28.4-13.6C232.8,186.9,234.3,187.7,234.9,188.5z M208.9,155.9c-22.6,5.9-39.4,18.4-49.9,39.4      C154.6,171.7,191.2,148.4,208.9,155.9z M166.4,205.9c-0.5-0.8-0.4-2.4,0-3.3c9.6-21,26.6-32.8,48.5-38.2c1-0.2,2.7,0.5,3.4,1.4      c3.3,4.2,6.3,8.5,9.8,13.3c-23.2,6-40.8,18.1-51.8,40.1C172.8,214.4,169.5,210.2,166.4,205.9z M184.6,223.1      c4.1-7.3,8.4-14.4,16.3-18.9c15.8,21.3,31.3,42,46.5,63c7.5,10.3,4.8,30.4-4.9,39.8c-1-1.2-1.9-2.3-2.8-3.4      c-18.1-24.3-36.2-48.6-54.5-72.8C183.2,228.1,183,226,184.6,223.1z" fill="#1B3763"/><path d="M206.8,205.2c13.8,18.3,28,36.2,41.1,54.9c7.1,10.1,16.2,12.3,27.2,11.1c5.9-0.7,12-1.1,16.6-5.7      c-0.1-0.6-0.1-1-0.3-1.2c-18.8-25.3-37.6-50.6-56.5-75.8c-0.6-0.8-2.1-1.6-2.9-1.4c-10.2,2.6-19.8,6.3-28.4,13.6      C204.9,202.5,205.8,203.9,206.8,205.2z" fill="#9FC9EB"/><path d="M242.6,307c9.7-9.5,12.4-29.5,4.9-39.8c-15.2-21-30.8-41.7-46.5-63c-7.9,4.6-12.2,11.6-16.3,18.9      c-1.6,2.9-1.4,5,0.6,7.7c18.2,24.2,36.3,48.5,54.5,72.8C240.6,304.8,241.6,305.9,242.6,307z" fill="#9FC9EB"/><path d="M257.7,275.2c1.1,13.3-3.5,24.7-9.9,36.4c14.4,6.4,28.5,12.7,42.6,18.9c0.7,0.3,1.9,0.1,2.5-0.3      c10.3-6.5,10.6-7.2,8.7-19.7c-0.1-0.6-0.1-1.2-0.2-1.8c-1.9-12.8-3.8-25.6-5.8-39C283.5,276.4,271.3,279.5,257.7,275.2z" fill="#FDCB9A"/><path d="M228.1,179c-3.5-4.9-6.6-9.2-9.8-13.3c-0.7-0.8-2.4-1.6-3.4-1.4c-21.9,5.4-38.9,17.2-48.5,38.2      c-0.4,0.9-0.5,2.6,0,3.3c3.1,4.4,6.4,8.6,9.9,13.3C187.3,197.2,204.9,185,228.1,179z" fill="#CECCCC"/><path d="M208.9,155.9c-17.7-7.5-54.3,15.8-49.9,39.4C169.5,174.3,186.3,161.8,208.9,155.9z" fill="#F7A1A2"/></g></g></g></svg>