<?xml version="1.0" ?><!DOCTYPE svg  PUBLIC '-//W3C//DTD SVG 1.1//EN'  'http://www.w3.org/Graphics/SVG/1.1/DTD/svg11.dtd'><svg height="8.26772in" style="shape-rendering:geometricPrecision; text-rendering:geometricPrecision; image-rendering:optimizeQuality; fill-rule:evenodd; clip-rule:evenodd" version="1.1" viewBox="0 0 826772 826772" width="8.26772in" xml:space="preserve" xmlns="http://www.w3.org/2000/svg" xmlns:xlink="http://www.w3.org/1999/xlink"><defs><style type="text/css">
   <![CDATA[
    .fil0 {fill:#DD4B39}
    .fil1 {fill:#2E373C;fill-rule:nonzero}
    .fil2 {fill:white;fill-rule:nonzero}
   ]]>
  </style></defs><g id="Layer_x0020_1"><polygon class="fil0" points="0,0 826772,0 826772,826772 0,826772 "/><path class="fil1" d="M300063 663357c472,3460 5080,4286 7156,1687 2971,-3729 41252,-49490 54268,-95183 3678,-12963 21114,-79940 21114,-79940 10465,19293 40983,36223 73444,36223 96616,0 162160,-85223 162160,-199328 0,-86272 -75537,-166615 -190300,-166615 -142764,15 -214788,99080 -214788,181689 0,50013 19580,94523 61524,111133 6921,2700 13081,101 15057,-7293 1400,-5113 4675,-17959 6161,-23377 1976,-7291 1232,-9823 -4321,-16186 -12137,-13809 -19867,-31717 -19867,-57037 0,-73509 56867,-139322 147998,-139322 80700,0 125059,47735 125059,111455 0,83872 -38367,154649 -95250,154649 -31480,0 -55027,-25150 -47498,-56006 9063,-36865 26568,-76617 26568,-103217 0,-23802 -13217,-43651 -40544,-43651 -32156,0 -57982,32172 -57982,75266 0,27462 9604,46046 9604,46046 0,0 -32913,134832 -38669,158481 -11462,47060 -1722,104719 -894,110526z"/><path class="fil2" d="M278101 663357c473,3460 5080,4286 7156,1687 2972,-3729 41252,-49490 54268,-95183 3679,-12963 21114,-79940 21114,-79940 10466,19293 40984,36223 73444,36223 96617,0 162161,-85223 162161,-199328 0,-86272 -75537,-166615 -190300,-166615 -142764,15 -214788,99080 -214788,181689 0,50013 19579,94523 61523,111133 6922,2700 13082,101 15058,-7293 1400,-5113 4674,-17959 6160,-23377 1976,-7291 1232,-9823 -4321,-16186 -12137,-13809 -19867,-31717 -19867,-57037 0,-73509 56868,-139322 147999,-139322 80699,0 125059,47735 125059,111455 0,83872 -38367,154649 -95250,154649 -31480,0 -55028,-25150 -47498,-56006 9063,-36865 26567,-76617 26567,-103217 0,-23802 -13216,-43651 -40544,-43651 -32156,0 -57982,32172 -57982,75266 0,27462 9605,46046 9605,46046 0,0 -32913,134832 -38670,158481 -11461,47060 -1722,104719 -894,110526z"/></g></svg>